<svg xmlns="http://www.w3.org/2000/svg" viewBox="0 0 894.95 129.94"><defs><style>.cls-1{fill:#fff;}.cls-2{fill:#da1a25;}</style></defs><title>Asset 1</title><g id="Layer_2" data-name="Layer 2"><g id="Layer_2-2" data-name="Layer 2"><path class="cls-1" d="M384.89,105H308.25V2.62h32.4V78.27h44.23Z"/><path class="cls-1" d="M465.41,67.81c0,23.37-16.92,39.52-40.9,39.52-24.14,0-40.75-16-40.75-39.21s16.76-39.37,41.06-39.37C448.8,28.76,465.41,44.6,465.41,67.81Zm-53,.31c0,12.45,3.9,19.17,12,19.17,8.3,0,13.07-6.3,13.07-19.22,0-12.3-4.92-19-13.38-19C416.2,49.11,412.46,55.67,412.46,68.12Z"/><path class="cls-1" d="M545.19,95.5c0,9.53-1.23,14.76-4.77,20.14-6.31,9.84-16.81,14.3-34.34,14.3-28.13,0-35.79-6.24-38.13-25h26.7c1.55,6.37,3.13,9.43,11.58,9.43s11.33-3.72,11.33-14V92.31c-5.69,6.61-11.33,9.23-20.55,9.23-19.83,0-31.68-13.07-31.68-35.06,0-21.68,12.46-37.87,31.68-37.87,9.84,0,15,3.08,20.24,11.07V30.76h27.94ZM493.27,66.32c0,10.3,3.89,15.78,12.5,15.78,8,0,12.35-5.38,12.35-14.61,0-9.84-4.35-17.93-12.35-17.93S493.27,57.25,493.27,66.32Z"/><rect class="cls-1" x="551.43" y="30.76" width="28.96" height="74.27"/><path class="cls-1" d="M705,52.12H684.51V74.89c.25,8.92,1.38,10.15,10.92,10.15H705v20c-7.08.61-15.44.92-20.36.92-14.46,0-22.5-2.92-26.5-10.3-2.15-4-2.77-6.77-2.77-15.23l-.15-49.67L684.51,2.55V30.76H705Z"/><rect class="cls-1" x="711.4" y="30.76" width="28.96" height="74.27"/><path class="cls-1" d="M781,106.87c-24.11,0-40.59-15.38-40.59-38.29,0-23.68,16.33-39.52,40.9-39.52,21.39,0,36.77,12.12,38,30H791.81C791,53,787.15,49,781.43,49,773.24,49,769,56,769,68.74c0,11.38,4.07,17.79,12.26,17.79,4.43,0,9.92-1.14,11.15-8.67H819.9C817.29,97.84,802.83,106.87,781,106.87Z"/><path class="cls-1" d="M866.86,52.12c-1.08-5.23-3.13-6.85-9.59-6.85-5.38,0-7.74,1.79-7.74,4.87,0,3.53,1.59,4.46,16.2,7.07,16,2.92,23.84,6.92,27.07,13.68a24.36,24.36,0,0,1,2.15,10c0,16.45-13.84,26-37.37,26-27.61,0-36.29-10.93-37.67-29h27.17c.62,6.41,1,11.59,10.82,11.59,5.16,0,9-2.3,9-6,0-3.16-.67-4.56-14.36-7.48-13.07-2.77-17.06-4-21.68-6.77-6-3.54-9.38-9.69-9.38-17.07,0-15.07,12.45-23.53,35.06-23.53,23.83,0,34.91,7.06,36.44,23.51Z"/><path class="cls-1" d="M627.32,52.12c-1.08-5-3.13-6.85-9.59-6.85-5.38,0-7.74,1.79-7.74,4.87,0,3.53,1.59,4.46,16.2,7.07,16,2.92,23.84,6.92,27.07,13.68a24.3,24.3,0,0,1,2.15,10c0,16.45-13.84,26-37.37,26-27.61,0-36.29-11.18-37.68-29h27.17c.61,6.15,1,11.59,10.82,11.59,5.16,0,9-2.3,9-6,0-3.16-.67-4.56-14.35-7.48-13.07-2.77-17.07-4-21.68-6.77-6-3.54-9.38-9.69-9.38-17.07,0-15.07,12.46-23.53,35.06-23.53,23.83,0,34.91,7.32,36.44,23.51Z"/><path class="cls-2" d="M73.08,50.75,109.89,105h-38l-10-16.6a89.63,89.63,0,0,1-7.53-14.76,137.75,137.75,0,0,1-8.15,15.22L37.61,105H0L37.25,50.75,0,2.62H36.73S53.4,26,55.71,31.22c1.69-3.84,16.9-28.6,16.9-28.6h37.28Z"/><path class="cls-2" d="M152.94,2.62c16.76,0,24.45,1.54,31.52,6.3,9.53,6.31,14.91,17.07,14.91,30a34.67,34.67,0,0,1-10.15,25.22c-6.61,6.46-15.07,9.38-28.6,9.38h-18.3V105H109.89V2.62ZM142.33,49.36h12.56c9.07.16,12.92-3.23,12.92-10.61s-4.31-10.92-13.53-10.92H142.33Z"/><path class="cls-2" d="M302.33,54c0,32.14-20.76,53.51-51.51,53.51-31.37,0-52.44-21.22-52.44-53.67S219.3,0,251.13,0C281.73,0,302.33,21.84,302.33,54Zm-71.19-.61c0,18.29,6.61,28.91,19.68,28.91,12.76,0,18.91-10.3,18.91-29.68,0-17.22-6.61-27.37-19.07-27.37C238.06,25.22,231.14,36,231.14,53.36Z"/></g></g></svg>